<svg xmlns="http://www.w3.org/2000/svg" xmlns:xlink="http://www.w3.org/1999/xlink" width="400" zoomAndPan="magnify" viewBox="0 0 300 112.499997" height="150" preserveAspectRatio="xMidYMid meet" version="1.0"><defs><g/></defs><g fill="#000000" fill-opacity="1"><g transform="translate(116.61381, 82.068046)"><g><path d="M 4.234375 6.6875 C 3.773438 6.882812 3.457031 6.785156 3.28125 6.390625 C 3.1875 6.265625 3.144531 6.0625 3.15625 5.78125 C 3.164062 5.5 3.191406 5.222656 3.234375 4.953125 C 3.316406 3.835938 3.800781 2.242188 4.6875 0.171875 C 5.582031 -1.890625 6.984375 -4.582031 8.890625 -7.90625 C 6.972656 -8.457031 5.578125 -9.304688 4.703125 -10.453125 L 4.671875 -10.75 C 4.628906 -11.09375 4.78125 -11.285156 5.125 -11.328125 C 5.46875 -11.359375 5.679688 -11.273438 5.765625 -11.078125 C 6.421875 -10.128906 7.664062 -9.4375 9.5 -9 C 11.507812 -12.320312 13.804688 -15.765625 16.390625 -19.328125 C 18.984375 -22.890625 21.554688 -25.976562 24.109375 -28.59375 C 24.234375 -28.757812 24.332031 -28.847656 24.40625 -28.859375 C 24.8125 -28.898438 25.035156 -28.710938 25.078125 -28.296875 C 25.085938 -28.160156 25.035156 -28.015625 24.921875 -27.859375 C 22.429688 -25.234375 19.921875 -22.195312 17.390625 -18.75 C 14.859375 -15.3125 12.660156 -11.96875 10.796875 -8.71875 C 12.191406 -8.519531 13.601562 -8.5 15.03125 -8.65625 C 18.789062 -9.050781 22.3125 -10.078125 25.59375 -11.734375 C 28.875 -13.398438 31.738281 -15.421875 34.1875 -17.796875 C 36.632812 -20.171875 38.492188 -22.648438 39.765625 -25.234375 C 41.046875 -27.828125 41.566406 -30.25 41.328125 -32.5 C 40.898438 -36.539062 37.914062 -38.269531 32.375 -37.6875 C 28.894531 -37.3125 25.28125 -36.210938 21.53125 -34.390625 C 17.78125 -32.566406 14.320312 -30.3125 11.15625 -27.625 C 7.988281 -24.9375 5.5625 -22.085938 3.875 -19.078125 C 3.832031 -18.859375 3.671875 -18.734375 3.390625 -18.703125 C 3.046875 -18.671875 2.851562 -18.863281 2.8125 -19.28125 C 2.789062 -19.414062 2.816406 -19.519531 2.890625 -19.59375 C 4.628906 -22.75 7.113281 -25.707031 10.34375 -28.46875 C 13.570312 -31.238281 17.140625 -33.570312 21.046875 -35.46875 C 24.960938 -37.375 28.695312 -38.519531 32.25 -38.90625 C 35.257812 -39.226562 37.664062 -38.847656 39.46875 -37.765625 C 41.269531 -36.679688 42.296875 -34.972656 42.546875 -32.640625 C 42.804688 -30.242188 42.269531 -27.675781 40.9375 -24.9375 C 39.601562 -22.207031 37.65625 -19.582031 35.09375 -17.0625 C 32.53125 -14.550781 29.539062 -12.421875 26.125 -10.671875 C 22.71875 -8.929688 19.066406 -7.851562 15.171875 -7.4375 C 14.285156 -7.34375 13.40625 -7.316406 12.53125 -7.359375 C 11.664062 -7.398438 10.847656 -7.488281 10.078125 -7.625 C 8.390625 -4.664062 7.117188 -2.289062 6.265625 -0.5 C 5.421875 1.28125 4.851562 2.734375 4.5625 3.859375 C 4.769531 3.910156 4.894531 4.109375 4.9375 4.453125 C 4.914062 4.941406 4.84375 5.398438 4.71875 5.828125 C 4.59375 6.253906 4.429688 6.539062 4.234375 6.6875 Z M 4.234375 6.6875 "/></g></g></g><g fill="#000000" fill-opacity="1"><g transform="translate(151.987107, 78.294716)"><g><path d="M 13.859375 -1.375 C 11.390625 -1.101562 10.046875 -1.992188 9.828125 -4.046875 C 9.710938 -5.066406 9.875 -6.15625 10.3125 -7.3125 C 10.75 -8.476562 11.222656 -9.535156 11.734375 -10.484375 C 11.847656 -10.640625 11.867188 -10.75 11.796875 -10.8125 C 11.722656 -10.875 11.625 -10.828125 11.5 -10.671875 C 11.0625 -10.347656 10.429688 -9.789062 9.609375 -9 C 8.296875 -7.832031 6.828125 -6.554688 5.203125 -5.171875 C 3.585938 -3.785156 2.039062 -2.566406 0.5625 -1.515625 C -0.914062 -0.460938 -2.132812 0.113281 -3.09375 0.21875 C -4.320312 0.351562 -4.992188 -0.117188 -5.109375 -1.203125 C -5.203125 -2.097656 -4.828125 -3.128906 -3.984375 -4.296875 C -3.140625 -5.460938 -2.050781 -6.597656 -0.71875 -7.703125 C 0.613281 -8.804688 1.945312 -9.738281 3.28125 -10.5 C 4.625 -11.269531 5.738281 -11.703125 6.625 -11.796875 C 7.988281 -11.941406 9 -11.535156 9.65625 -10.578125 C 11.664062 -12.441406 12.878906 -13.394531 13.296875 -13.4375 C 13.765625 -13.488281 14.023438 -13.273438 14.078125 -12.796875 C 14.097656 -12.523438 13.800781 -11.804688 13.1875 -10.640625 C 12.65625 -9.679688 12.125 -8.601562 11.59375 -7.40625 C 11.070312 -6.207031 10.863281 -5.128906 10.96875 -4.171875 C 11.09375 -2.953125 12.007812 -2.4375 13.71875 -2.625 C 14.800781 -2.738281 16.367188 -3.25 18.421875 -4.15625 C 20.472656 -5.0625 22.628906 -6.222656 24.890625 -7.640625 C 27.160156 -9.054688 29.175781 -10.585938 30.9375 -12.234375 C 31 -12.296875 31.132812 -12.34375 31.34375 -12.375 C 31.6875 -12.40625 31.878906 -12.25 31.921875 -11.90625 C 31.941406 -11.695312 31.882812 -11.519531 31.75 -11.375 C 29.988281 -9.800781 27.941406 -8.269531 25.609375 -6.78125 C 23.285156 -5.289062 21.050781 -4.046875 18.90625 -3.046875 C 16.769531 -2.054688 15.085938 -1.5 13.859375 -1.375 Z M -3.21875 -1.015625 C -2.394531 -1.097656 -1.296875 -1.628906 0.078125 -2.609375 C 1.460938 -3.585938 2.925781 -4.742188 4.46875 -6.078125 C 6.019531 -7.421875 7.425781 -8.679688 8.6875 -9.859375 C 8.28125 -10.492188 7.632812 -10.765625 6.75 -10.671875 C 5.863281 -10.578125 4.800781 -10.171875 3.5625 -9.453125 C 2.320312 -8.734375 1.117188 -7.84375 -0.046875 -6.78125 C -1.210938 -5.726562 -2.175781 -4.710938 -2.9375 -3.734375 C -3.695312 -2.753906 -4.046875 -1.953125 -3.984375 -1.328125 C -3.953125 -1.066406 -3.695312 -0.960938 -3.21875 -1.015625 Z M -3.21875 -1.015625 "/></g></g></g><g fill="#000000" fill-opacity="1"><g transform="translate(181.926247, 75.101057)"><g><path d="M -18.84375 28.359375 C -19.46875 28.421875 -19.710938 28.097656 -19.578125 27.390625 L -19.484375 27.28125 C -19.429688 27.132812 -19.390625 27.007812 -19.359375 26.90625 C -19.335938 26.800781 -19.300781 26.707031 -19.25 26.625 C -15.144531 18.375 -10.488281 9.960938 -5.28125 1.390625 C -0.0820312 -7.179688 5.320312 -15.601562 10.9375 -23.875 C 6.59375 -23.195312 2.335938 -22.460938 -1.828125 -21.671875 C -6.003906 -20.878906 -9.984375 -20.015625 -13.765625 -19.078125 L -13.859375 -19.0625 C -14.273438 -19.019531 -14.503906 -19.195312 -14.546875 -19.59375 C -14.578125 -19.875 -14.425781 -20.097656 -14.09375 -20.265625 C -10.125 -21.253906 -5.953125 -22.15625 -1.578125 -22.96875 C 2.796875 -23.78125 7.269531 -24.492188 11.84375 -25.109375 C 14.34375 -28.835938 16.867188 -32.476562 19.421875 -36.03125 C 21.984375 -39.59375 24.53125 -43.09375 27.0625 -46.53125 C 27.1875 -46.6875 27.316406 -46.769531 27.453125 -46.78125 C 27.867188 -46.820312 28.097656 -46.640625 28.140625 -46.234375 C 28.160156 -46.035156 28.140625 -45.898438 28.078125 -45.828125 C 25.671875 -42.597656 23.25 -39.265625 20.8125 -35.828125 C 18.375 -32.390625 15.921875 -28.90625 13.453125 -25.375 C 22.035156 -26.632812 30.617188 -27.550781 39.203125 -28.125 C 39.546875 -28.15625 39.738281 -27.972656 39.78125 -27.578125 C 39.820312 -27.234375 39.632812 -27.039062 39.21875 -27 C 34.832031 -26.664062 30.382812 -26.257812 25.875 -25.78125 C 21.363281 -25.300781 16.898438 -24.722656 12.484375 -24.046875 C 6.910156 -15.910156 1.535156 -7.609375 -3.640625 0.859375 C -8.816406 9.328125 -13.425781 17.644531 -17.46875 25.8125 C -17.175781 25.925781 -17.148438 26.171875 -17.390625 26.546875 C -17.617188 26.972656 -17.847656 27.375 -18.078125 27.75 C -18.316406 28.125 -18.570312 28.328125 -18.84375 28.359375 Z M -18.84375 28.359375 "/></g></g></g><g fill="#000000" fill-opacity="1"><g transform="translate(197.20341, 73.471416)"><g><path d="M 3.421875 -0.046875 C 1.921875 0.109375 0.71875 -0.0390625 -0.1875 -0.5 C -1.101562 -0.957031 -1.617188 -1.695312 -1.734375 -2.71875 C -1.859375 -3.875 -1.515625 -5.15625 -0.703125 -6.5625 C 0.109375 -7.96875 1.128906 -9.21875 2.359375 -10.3125 C 3.597656 -11.40625 4.757812 -12.007812 5.84375 -12.125 C 7.082031 -12.257812 7.757812 -11.78125 7.875 -10.6875 C 7.945312 -10.007812 7.554688 -9.3125 6.703125 -8.59375 C 5.847656 -7.882812 4.941406 -7.476562 3.984375 -7.375 C 2.816406 -7.25 1.945312 -7.296875 1.375 -7.515625 C 0.769531 -6.765625 0.285156 -5.972656 -0.078125 -5.140625 C -0.441406 -4.304688 -0.585938 -3.546875 -0.515625 -2.859375 C -0.367188 -1.554688 0.898438 -1.03125 3.296875 -1.28125 C 4.316406 -1.394531 5.882812 -1.875 8 -2.71875 C 10.125 -3.5625 12.472656 -4.710938 15.046875 -6.171875 C 17.617188 -7.628906 19.984375 -9.335938 22.140625 -11.296875 C 22.191406 -11.359375 22.289062 -11.398438 22.4375 -11.421875 C 22.832031 -11.460938 23.050781 -11.3125 23.09375 -10.96875 C 23.113281 -10.757812 23.023438 -10.578125 22.828125 -10.421875 C 20.628906 -8.390625 18.226562 -6.609375 15.625 -5.078125 C 13.019531 -3.554688 10.601562 -2.363281 8.375 -1.5 C 6.15625 -0.644531 4.503906 -0.160156 3.421875 -0.046875 Z M 3.859375 -8.5 C 4.398438 -8.5625 5.023438 -8.851562 5.734375 -9.375 C 6.441406 -9.90625 6.78125 -10.300781 6.75 -10.5625 C 6.726562 -10.832031 6.472656 -10.941406 5.984375 -10.890625 C 5.378906 -10.828125 4.753906 -10.570312 4.109375 -10.125 C 3.460938 -9.6875 2.828125 -9.15625 2.203125 -8.53125 C 2.421875 -8.476562 2.664062 -8.453125 2.9375 -8.453125 C 3.207031 -8.453125 3.515625 -8.46875 3.859375 -8.5 Z M 3.859375 -8.5 "/></g></g></g><g fill="#000000" fill-opacity="1"><g transform="translate(218.22233, 71.229292)"><g><path d="M 1.109375 4.4375 C -1.148438 4.675781 -2.382812 3.804688 -2.59375 1.828125 C -2.78125 0.117188 -2.253906 -2.21875 -1.015625 -5.1875 C 0.222656 -8.15625 1.945312 -11.445312 4.15625 -15.0625 C 6.363281 -18.6875 8.878906 -22.445312 11.703125 -26.34375 C 14.535156 -30.238281 17.460938 -34.019531 20.484375 -37.6875 C 23.515625 -41.363281 26.425781 -44.679688 29.21875 -47.640625 C 32.019531 -50.609375 34.550781 -52.988281 36.8125 -54.78125 C 39.082031 -56.582031 40.835938 -57.550781 42.078125 -57.6875 C 43.578125 -57.84375 44.398438 -57.238281 44.546875 -55.875 C 44.648438 -54.914062 44.039062 -53.34375 42.71875 -51.15625 C 41.394531 -48.976562 39.570312 -46.414062 37.25 -43.46875 C 34.9375 -40.53125 32.28125 -37.410156 29.28125 -34.109375 C 26.28125 -30.816406 23.140625 -27.53125 19.859375 -24.25 C 16.578125 -20.96875 13.34375 -17.894531 10.15625 -15.03125 C 6.976562 -12.164062 4.015625 -9.6875 1.265625 -7.59375 C -0.785156 -3.507812 -1.695312 -0.410156 -1.46875 1.703125 C -1.394531 2.390625 -1.191406 2.851562 -0.859375 3.09375 C -0.523438 3.34375 0.0859375 3.421875 0.984375 3.328125 C 2.066406 3.210938 3.796875 2.472656 6.171875 1.109375 C 8.554688 -0.253906 11.253906 -2.03125 14.265625 -4.21875 C 17.285156 -6.40625 20.28125 -8.800781 23.25 -11.40625 C 23.3125 -11.476562 23.445312 -11.523438 23.65625 -11.546875 C 24 -11.585938 24.191406 -11.40625 24.234375 -11 C 24.253906 -10.851562 24.203125 -10.703125 24.078125 -10.546875 C 21.410156 -8.265625 18.539062 -5.988281 15.46875 -3.71875 C 12.394531 -1.457031 9.570312 0.425781 7 1.9375 C 4.4375 3.457031 2.472656 4.289062 1.109375 4.4375 Z M 2.5625 -10.015625 C 5.9375 -12.734375 9.519531 -15.882812 13.3125 -19.46875 C 17.113281 -23.050781 20.816406 -26.742188 24.421875 -30.546875 C 28.035156 -34.359375 31.28125 -37.988281 34.15625 -41.4375 C 37.03125 -44.894531 39.316406 -47.90625 41.015625 -50.46875 C 42.710938 -53.03125 43.507812 -54.789062 43.40625 -55.75 C 43.34375 -56.363281 42.941406 -56.632812 42.203125 -56.5625 C 40.890625 -56.414062 39.015625 -55.296875 36.578125 -53.203125 C 34.140625 -51.109375 31.367188 -48.375 28.265625 -45 C 25.171875 -41.632812 22.007812 -37.929688 18.78125 -33.890625 C 15.550781 -29.847656 12.515625 -25.757812 9.671875 -21.625 C 6.828125 -17.488281 4.457031 -13.617188 2.5625 -10.015625 Z M 2.5625 -10.015625 "/></g></g></g><g fill="#000000" fill-opacity="1"><g transform="translate(22.896886, 42.959323)"><g><path d="M 25.171875 0.34375 L 4.6875 -26.296875 L 4.6875 -7.265625 C 4.6875 -5.609375 4.800781 -4.332031 5.03125 -3.4375 C 5.269531 -2.539062 5.613281 -1.878906 6.0625 -1.453125 C 6.507812 -1.035156 7.050781 -0.738281 7.6875 -0.5625 L 7.6875 0 L 2.265625 0 L 2.265625 -0.5625 C 2.929688 -0.769531 3.382812 -1.207031 3.625 -1.875 C 3.875 -2.539062 4 -3.753906 4 -5.515625 L 4 -24.90625 C 4 -26.707031 3.835938 -27.929688 3.515625 -28.578125 C 3.203125 -29.234375 2.609375 -29.660156 1.734375 -29.859375 L 1.734375 -30.421875 L 6 -30.421875 L 25 -5.828125 L 25 -23.171875 C 25 -24.816406 24.878906 -26.097656 24.640625 -27.015625 C 24.410156 -27.929688 24.078125 -28.59375 23.640625 -29 C 23.210938 -29.40625 22.664062 -29.691406 22 -29.859375 L 22 -30.421875 L 27.46875 -30.421875 L 27.46875 -29.859375 C 26.800781 -29.660156 26.34375 -29.234375 26.09375 -28.578125 C 25.851562 -27.929688 25.734375 -26.707031 25.734375 -24.90625 L 25.734375 0.34375 Z M 25.171875 0.34375 "/></g></g></g><g fill="#000000" fill-opacity="1"><g transform="translate(65.452855, 42.959323)"><g><path d="M 2.21875 0 L 2.21875 -0.5625 C 2.882812 -0.769531 3.335938 -1.207031 3.578125 -1.875 C 3.828125 -2.539062 3.953125 -3.753906 3.953125 -5.515625 L 3.953125 -24.90625 C 3.953125 -26.707031 3.828125 -27.929688 3.578125 -28.578125 C 3.335938 -29.234375 2.882812 -29.660156 2.21875 -29.859375 L 2.21875 -30.421875 L 9.265625 -30.421875 L 9.265625 -29.859375 C 8.597656 -29.660156 8.140625 -29.234375 7.890625 -28.578125 C 7.640625 -27.929688 7.515625 -26.707031 7.515625 -24.90625 L 7.515625 -5.515625 C 7.515625 -3.753906 7.640625 -2.539062 7.890625 -1.875 C 8.140625 -1.207031 8.597656 -0.769531 9.265625 -0.5625 L 9.265625 0 Z M 2.21875 0 "/></g></g></g><g fill="#000000" fill-opacity="1"><g transform="translate(90.274274, 42.959323)"><g><path d="M 24.34375 0.296875 C 23.238281 0.296875 22.367188 0.03125 21.734375 -0.5 C 21.097656 -1.03125 20.539062 -1.8125 20.0625 -2.84375 C 19.582031 -3.875 19.023438 -5.144531 18.390625 -6.65625 C 17.753906 -8.15625 17.21875 -9.46875 16.78125 -10.59375 C 16.34375 -11.726562 15.867188 -12.671875 15.359375 -13.421875 C 14.859375 -14.179688 14.21875 -14.75 13.4375 -15.125 C 12.65625 -15.5 11.609375 -15.6875 10.296875 -15.6875 L 7.515625 -15.6875 L 7.515625 -5.515625 C 7.515625 -3.753906 7.640625 -2.539062 7.890625 -1.875 C 8.140625 -1.207031 8.597656 -0.769531 9.265625 -0.5625 L 9.265625 0 L 2.21875 0 L 2.21875 -0.5625 C 2.882812 -0.769531 3.335938 -1.207031 3.578125 -1.875 C 3.828125 -2.539062 3.953125 -3.753906 3.953125 -5.515625 L 3.953125 -24.90625 C 3.953125 -26.707031 3.828125 -27.929688 3.578125 -28.578125 C 3.335938 -29.234375 2.882812 -29.660156 2.21875 -29.859375 L 2.21875 -30.421875 L 10.78125 -30.421875 C 13.738281 -30.421875 16.039062 -30.125 17.6875 -29.53125 C 19.34375 -28.9375 20.507812 -28.132812 21.1875 -27.125 C 21.875 -26.113281 22.21875 -24.953125 22.21875 -23.640625 C 22.21875 -21.617188 21.488281 -19.890625 20.03125 -18.453125 C 18.582031 -17.015625 16.441406 -16.140625 13.609375 -15.828125 C 14.941406 -15.648438 16.023438 -15.347656 16.859375 -14.921875 C 17.703125 -14.503906 18.398438 -13.941406 18.953125 -13.234375 C 19.503906 -12.523438 19.992188 -11.660156 20.421875 -10.640625 C 20.859375 -9.628906 21.335938 -8.457031 21.859375 -7.125 C 22.554688 -5.382812 23.144531 -4.035156 23.625 -3.078125 C 24.101562 -2.128906 24.546875 -1.457031 24.953125 -1.0625 C 25.359375 -0.675781 25.804688 -0.484375 26.296875 -0.484375 C 26.441406 -0.484375 26.5625 -0.484375 26.65625 -0.484375 C 26.757812 -0.484375 26.875 -0.492188 27 -0.515625 L 27 0 C 26.675781 0.113281 26.257812 0.191406 25.75 0.234375 C 25.25 0.273438 24.78125 0.296875 24.34375 0.296875 Z M 7.515625 -16.34375 L 11.171875 -16.34375 C 13.660156 -16.34375 15.503906 -16.925781 16.703125 -18.09375 C 17.910156 -19.269531 18.515625 -20.785156 18.515625 -22.640625 C 18.515625 -23.953125 18.21875 -25.140625 17.625 -26.203125 C 17.03125 -27.273438 16.070312 -28.140625 14.75 -28.796875 C 13.4375 -29.453125 11.707031 -29.78125 9.5625 -29.78125 C 9.238281 -29.78125 8.90625 -29.769531 8.5625 -29.75 C 8.21875 -29.738281 7.867188 -29.71875 7.515625 -29.6875 Z M 7.515625 -16.34375 "/></g></g></g><g fill="#000000" fill-opacity="1"><g transform="translate(130.222218, 42.959323)"><g><path d="M 2.171875 0 L 2.171875 -0.5625 C 2.835938 -0.769531 3.289062 -1.207031 3.53125 -1.875 C 3.78125 -2.539062 3.90625 -3.753906 3.90625 -5.515625 L 3.90625 -23.171875 C 3.90625 -24.816406 3.800781 -26.097656 3.59375 -27.015625 C 3.394531 -27.929688 3.097656 -28.59375 2.703125 -29 C 2.316406 -29.40625 1.835938 -29.691406 1.265625 -29.859375 L 1.265625 -30.421875 L 6.515625 -30.421875 L 17.859375 -11.6875 L 29 -30.421875 L 33.90625 -30.421875 L 33.90625 -29.859375 C 33.320312 -29.691406 32.832031 -29.40625 32.4375 -29 C 32.050781 -28.59375 31.753906 -27.929688 31.546875 -27.015625 C 31.347656 -26.097656 31.25 -24.816406 31.25 -23.171875 L 31.25 -5.515625 C 31.25 -3.753906 31.375 -2.539062 31.625 -1.875 C 31.875 -1.207031 32.332031 -0.769531 33 -0.5625 L 33 0 L 25.953125 0 L 25.953125 -0.5625 C 26.617188 -0.769531 27.070312 -1.207031 27.3125 -1.875 C 27.5625 -2.539062 27.6875 -3.753906 27.6875 -5.515625 L 27.6875 -26.90625 L 16.65625 -8.265625 L 15.828125 -8.265625 L 4.6875 -26.5625 L 4.6875 -7.265625 C 4.6875 -5.609375 4.800781 -4.332031 5.03125 -3.4375 C 5.269531 -2.539062 5.601562 -1.878906 6.03125 -1.453125 C 6.46875 -1.035156 7.007812 -0.738281 7.65625 -0.5625 L 7.65625 0 Z M 2.171875 0 "/></g></g></g><g fill="#000000" fill-opacity="1"><g transform="translate(179.689442, 42.959323)"><g><path d="M 2.21875 0 L 2.21875 -0.5625 C 2.882812 -0.769531 3.335938 -1.207031 3.578125 -1.875 C 3.828125 -2.539062 3.953125 -3.753906 3.953125 -5.515625 L 3.953125 -24.90625 C 3.953125 -26.707031 3.828125 -27.929688 3.578125 -28.578125 C 3.335938 -29.234375 2.882812 -29.660156 2.21875 -29.859375 L 2.21875 -30.421875 L 9.265625 -30.421875 L 9.265625 -29.859375 C 8.597656 -29.660156 8.140625 -29.234375 7.890625 -28.578125 C 7.640625 -27.929688 7.515625 -26.707031 7.515625 -24.90625 L 7.515625 -5.515625 C 7.515625 -3.753906 7.640625 -2.539062 7.890625 -1.875 C 8.140625 -1.207031 8.597656 -0.769531 9.265625 -0.5625 L 9.265625 0 Z M 2.21875 0 "/></g></g></g><g fill="#000000" fill-opacity="1"><g transform="translate(204.51086, 42.959323)"><g><path d="M 8.65625 0 L 8.65625 -0.5625 C 9.320312 -0.769531 9.773438 -1.207031 10.015625 -1.875 C 10.265625 -2.539062 10.390625 -3.753906 10.390625 -5.515625 L 10.390625 -29.734375 L 8.265625 -29.734375 C 6.316406 -29.734375 4.832031 -29.425781 3.8125 -28.8125 C 2.800781 -28.207031 1.921875 -27.125 1.171875 -25.5625 L 0.703125 -25.640625 L 0.953125 -30.421875 L 23.34375 -30.421875 L 23.609375 -25.640625 L 23.125 -25.5625 C 22.394531 -27.125 21.523438 -28.207031 20.515625 -28.8125 C 19.503906 -29.425781 18.015625 -29.734375 16.046875 -29.734375 L 14 -29.734375 L 14 -5.515625 C 14 -3.753906 14.117188 -2.539062 14.359375 -1.875 C 14.609375 -1.207031 15.066406 -0.769531 15.734375 -0.5625 L 15.734375 0 Z M 8.65625 0 "/></g></g></g></svg>